{
	"patcher" : 	{
		"fileversion" : 1,
		"appversion" : 		{
			"major" : 8,
			"minor" : 2,
			"revision" : 2,
			"architecture" : "x64",
			"modernui" : 1
		}
,
		"classnamespace" : "box",
		"rect" : [ 480.0, 87.0, 1391.0, 999.0 ],
		"bglocked" : 0,
		"openinpresentation" : 0,
		"default_fontsize" : 12.0,
		"default_fontface" : 0,
		"default_fontname" : "Arial",
		"gridonopen" : 1,
		"gridsize" : [ 15.0, 15.0 ],
		"gridsnaponopen" : 1,
		"objectsnaponopen" : 1,
		"statusbarvisible" : 2,
		"toolbarvisible" : 1,
		"lefttoolbarpinned" : 0,
		"toptoolbarpinned" : 0,
		"righttoolbarpinned" : 0,
		"bottomtoolbarpinned" : 0,
		"toolbars_unpinned_last_save" : 0,
		"tallnewobj" : 0,
		"boxanimatetime" : 200,
		"enablehscroll" : 1,
		"enablevscroll" : 1,
		"devicewidth" : 0.0,
		"description" : "",
		"digest" : "",
		"tags" : "",
		"style" : "",
		"subpatcher_template" : "",
		"showontab" : 1,
		"assistshowspatchername" : 0,
		"boxes" : [ 			{
				"box" : 				{
					"id" : "obj-1",
					"maxclass" : "newobj",
					"numinlets" : 0,
					"numoutlets" : 0,
					"patcher" : 					{
						"fileversion" : 1,
						"appversion" : 						{
							"major" : 8,
							"minor" : 2,
							"revision" : 2,
							"architecture" : "x64",
							"modernui" : 1
						}
,
						"classnamespace" : "box",
						"rect" : [ 0.0, 26.0, 1391.0, 973.0 ],
						"bglocked" : 0,
						"openinpresentation" : 0,
						"default_fontsize" : 12.0,
						"default_fontface" : 0,
						"default_fontname" : "Arial",
						"gridonopen" : 1,
						"gridsize" : [ 15.0, 15.0 ],
						"gridsnaponopen" : 1,
						"objectsnaponopen" : 1,
						"statusbarvisible" : 2,
						"toolbarvisible" : 1,
						"lefttoolbarpinned" : 0,
						"toptoolbarpinned" : 0,
						"righttoolbarpinned" : 0,
						"bottomtoolbarpinned" : 0,
						"toolbars_unpinned_last_save" : 0,
						"tallnewobj" : 0,
						"boxanimatetime" : 200,
						"enablehscroll" : 1,
						"enablevscroll" : 1,
						"devicewidth" : 0.0,
						"description" : "",
						"digest" : "",
						"tags" : "",
						"style" : "",
						"subpatcher_template" : "",
						"showontab" : 1,
						"assistshowspatchername" : 0,
						"boxes" : [ 							{
								"box" : 								{
									"fontname" : "Arial",
									"fontsize" : 12.0,
									"id" : "obj-33",
									"linecount" : 4,
									"maxclass" : "message",
									"numinlets" : 2,
									"numoutlets" : 1,
									"outlettype" : [ "" ],
									"patching_rect" : [ 956.0, 649.0, 252.0, 62.0 ],
									"text" : "\"Macintosh HD:/Users/aloriette/Documents/research/rto_max/max_implementation/new/data/unistroke/unistroke.json\""
								}

							}
, 							{
								"box" : 								{
									"fontname" : "Arial",
									"fontsize" : 12.0,
									"id" : "obj-40",
									"maxclass" : "newobj",
									"numinlets" : 1,
									"numoutlets" : 1,
									"outlettype" : [ "" ],
									"patching_rect" : [ 956.0, 613.0, 77.0, 22.0 ],
									"text" : "prepend set"
								}

							}
, 							{
								"box" : 								{
									"fontname" : "Arial",
									"fontsize" : 12.0,
									"id" : "obj-44",
									"maxclass" : "newobj",
									"numinlets" : 1,
									"numoutlets" : 1,
									"outlettype" : [ "" ],
									"patching_rect" : [ 956.0, 578.0, 86.0, 22.0 ],
									"text" : "prepend read"
								}

							}
, 							{
								"box" : 								{
									"id" : "obj-48",
									"maxclass" : "dropfile",
									"numinlets" : 1,
									"numoutlets" : 2,
									"outlettype" : [ "", "" ],
									"patching_rect" : [ 956.0, 521.0, 121.0, 37.0 ]
								}

							}
, 							{
								"box" : 								{
									"id" : "obj-38",
									"maxclass" : "newobj",
									"numinlets" : 1,
									"numoutlets" : 1,
									"outlettype" : [ "" ],
									"patching_rect" : [ 408.0, 263.0, 71.0, 22.0 ],
									"text" : "fromsymbol"
								}

							}
, 							{
								"box" : 								{
									"id" : "obj-41",
									"maxclass" : "newobj",
									"numinlets" : 2,
									"numoutlets" : 2,
									"outlettype" : [ "", "" ],
									"patching_rect" : [ 408.0, 239.0, 81.0, 22.0 ],
									"text" : "route process"
								}

							}
, 							{
								"box" : 								{
									"id" : "obj-24",
									"maxclass" : "message",
									"numinlets" : 2,
									"numoutlets" : 1,
									"outlettype" : [ "" ],
									"patching_rect" : [ 956.0, 133.0, 61.0, 22.0 ],
									"text" : "play_n 10"
								}

							}
, 							{
								"box" : 								{
									"id" : "obj-22",
									"maxclass" : "newobj",
									"numinlets" : 1,
									"numoutlets" : 1,
									"outlettype" : [ "" ],
									"patching_rect" : [ 431.0, 84.0, 131.0, 22.0 ],
									"text" : "prepend instantaneous"
								}

							}
, 							{
								"box" : 								{
									"id" : "obj-21",
									"maxclass" : "toggle",
									"numinlets" : 1,
									"numoutlets" : 1,
									"outlettype" : [ "int" ],
									"parameter_enable" : 0,
									"patching_rect" : [ 431.0, 58.0, 24.0, 24.0 ]
								}

							}
, 							{
								"box" : 								{
									"id" : "obj-23",
									"maxclass" : "newobj",
									"numinlets" : 2,
									"numoutlets" : 2,
									"outlettype" : [ "", "" ],
									"patching_rect" : [ 118.0, 332.0, 62.0, 22.0 ],
									"text" : "route cmd"
								}

							}
, 							{
								"box" : 								{
									"id" : "obj-20",
									"maxclass" : "newobj",
									"numinlets" : 1,
									"numoutlets" : 1,
									"outlettype" : [ "" ],
									"patching_rect" : [ 261.0, 356.0, 71.0, 22.0 ],
									"text" : "fromsymbol"
								}

							}
, 							{
								"box" : 								{
									"id" : "obj-18",
									"maxclass" : "newobj",
									"numinlets" : 1,
									"numoutlets" : 1,
									"outlettype" : [ "" ],
									"patching_rect" : [ 118.0, 356.0, 104.0, 22.0 ],
									"text" : "prepend paintoval"
								}

							}
, 							{
								"box" : 								{
									"id" : "obj-13",
									"maxclass" : "newobj",
									"numinlets" : 2,
									"numoutlets" : 2,
									"outlettype" : [ "", "" ],
									"patching_rect" : [ 261.0, 332.0, 55.0, 22.0 ],
									"text" : "route lcd"
								}

							}
, 							{
								"box" : 								{
									"id" : "obj-31",
									"maxclass" : "message",
									"numinlets" : 2,
									"numoutlets" : 1,
									"outlettype" : [ "" ],
									"patching_rect" : [ 956.0, 217.0, 66.0, 22.0 ],
									"text" : "script start"
								}

							}
, 							{
								"box" : 								{
									"id" : "obj-37",
									"maxclass" : "newobj",
									"numinlets" : 3,
									"numoutlets" : 3,
									"outlettype" : [ "", "", "" ],
									"patching_rect" : [ 956.0, 241.0, 131.0, 22.0 ],
									"text" : "routepass running start"
								}

							}
, 							{
								"box" : 								{
									"bgmode" : 0,
									"border" : 0,
									"clickthrough" : 0,
									"enablehscroll" : 0,
									"enablevscroll" : 0,
									"id" : "obj-1",
									"lockeddragscroll" : 0,
									"lockedsize" : 0,
									"maxclass" : "bpatcher",
									"name" : "n4m.monitor.maxpat",
									"numinlets" : 1,
									"numoutlets" : 1,
									"offset" : [ 0.0, 0.0 ],
									"outlettype" : [ "bang" ],
									"patching_rect" : [ 956.0, 265.0, 400.0, 220.0 ],
									"viewvisibility" : 1
								}

							}
, 							{
								"box" : 								{
									"bgcolor" : [ 0.011764705882353, 0.537254901960784, 0.545098039215686, 1.0 ],
									"id" : "obj-39",
									"maxclass" : "newobj",
									"numinlets" : 1,
									"numoutlets" : 2,
									"outlettype" : [ "", "" ],
									"patching_rect" : [ 118.0, 172.0, 131.0, 22.0 ],
									"saved_object_attributes" : 									{
										"autostart" : 1,
										"defer" : 0,
										"watch" : 0
									}
,
									"text" : "node.script unistroke.js"
								}

							}
, 							{
								"box" : 								{
									"id" : "obj-3",
									"maxclass" : "message",
									"numinlets" : 2,
									"numoutlets" : 1,
									"outlettype" : [ "" ],
									"patching_rect" : [ 588.0, 84.0, 370.0, 22.0 ],
									"text" : "read ./data/unistroke/unistroke.json"
								}

							}
, 							{
								"box" : 								{
									"id" : "obj-14",
									"maxclass" : "message",
									"numinlets" : 2,
									"numoutlets" : 1,
									"outlettype" : [ "" ],
									"patching_rect" : [ 224.0, 356.0, 35.0, 22.0 ],
									"text" : "clear"
								}

							}
, 							{
								"box" : 								{
									"id" : "obj-11",
									"maxclass" : "message",
									"numinlets" : 2,
									"numoutlets" : 1,
									"outlettype" : [ "" ],
									"patching_rect" : [ 956.0, 157.0, 57.0, 22.0 ],
									"text" : "play_one"
								}

							}
, 							{
								"box" : 								{
									"id" : "obj-7",
									"maxclass" : "lcd",
									"numinlets" : 1,
									"numoutlets" : 4,
									"outlettype" : [ "list", "list", "int", "" ],
									"patching_rect" : [ 118.0, 380.0, 571.0, 488.0 ]
								}

							}
, 							{
								"box" : 								{
									"bgcolor" : [ 0.682352941176471, 0.003921568627451, 0.015686274509804, 1.0 ],
									"id" : "obj-10",
									"maxclass" : "newobj",
									"numinlets" : 1,
									"numoutlets" : 0,
									"patching_rect" : [ 510.5, 295.0, 74.0, 22.0 ],
									"text" : "s input_data"
								}

							}
 ],
						"lines" : [ 							{
								"patchline" : 								{
									"destination" : [ "obj-39", 0 ],
									"source" : [ "obj-11", 0 ]
								}

							}
, 							{
								"patchline" : 								{
									"destination" : [ "obj-20", 0 ],
									"source" : [ "obj-13", 0 ]
								}

							}
, 							{
								"patchline" : 								{
									"destination" : [ "obj-7", 0 ],
									"source" : [ "obj-14", 0 ]
								}

							}
, 							{
								"patchline" : 								{
									"destination" : [ "obj-7", 0 ],
									"source" : [ "obj-18", 0 ]
								}

							}
, 							{
								"patchline" : 								{
									"destination" : [ "obj-18", 0 ],
									"source" : [ "obj-20", 0 ]
								}

							}
, 							{
								"patchline" : 								{
									"destination" : [ "obj-22", 0 ],
									"source" : [ "obj-21", 0 ]
								}

							}
, 							{
								"patchline" : 								{
									"destination" : [ "obj-39", 0 ],
									"source" : [ "obj-22", 0 ]
								}

							}
, 							{
								"patchline" : 								{
									"destination" : [ "obj-7", 0 ],
									"source" : [ "obj-23", 0 ]
								}

							}
, 							{
								"patchline" : 								{
									"destination" : [ "obj-39", 0 ],
									"source" : [ "obj-24", 0 ]
								}

							}
, 							{
								"patchline" : 								{
									"destination" : [ "obj-39", 0 ],
									"source" : [ "obj-3", 0 ]
								}

							}
, 							{
								"patchline" : 								{
									"destination" : [ "obj-39", 0 ],
									"source" : [ "obj-31", 0 ]
								}

							}
, 							{
								"patchline" : 								{
									"destination" : [ "obj-1", 0 ],
									"source" : [ "obj-37", 2 ]
								}

							}
, 							{
								"patchline" : 								{
									"destination" : [ "obj-1", 0 ],
									"source" : [ "obj-37", 1 ]
								}

							}
, 							{
								"patchline" : 								{
									"destination" : [ "obj-10", 0 ],
									"source" : [ "obj-38", 0 ],
									"watchpoint_flags" : 5,
									"watchpoint_id" : 6
								}

							}
, 							{
								"patchline" : 								{
									"destination" : [ "obj-13", 0 ],
									"order" : 1,
									"source" : [ "obj-39", 0 ]
								}

							}
, 							{
								"patchline" : 								{
									"destination" : [ "obj-23", 0 ],
									"order" : 2,
									"source" : [ "obj-39", 0 ]
								}

							}
, 							{
								"patchline" : 								{
									"destination" : [ "obj-37", 0 ],
									"source" : [ "obj-39", 1 ]
								}

							}
, 							{
								"patchline" : 								{
									"destination" : [ "obj-41", 0 ],
									"order" : 0,
									"source" : [ "obj-39", 0 ]
								}

							}
, 							{
								"patchline" : 								{
									"destination" : [ "obj-33", 0 ],
									"source" : [ "obj-40", 0 ]
								}

							}
, 							{
								"patchline" : 								{
									"destination" : [ "obj-38", 0 ],
									"source" : [ "obj-41", 0 ]
								}

							}
, 							{
								"patchline" : 								{
									"destination" : [ "obj-39", 0 ],
									"source" : [ "obj-44", 0 ]
								}

							}
, 							{
								"patchline" : 								{
									"destination" : [ "obj-44", 0 ],
									"source" : [ "obj-48", 0 ]
								}

							}
 ],
						"styles" : [ 							{
								"name" : "AudioStatus_Menu",
								"default" : 								{
									"bgfillcolor" : 									{
										"angle" : 270.0,
										"autogradient" : 0,
										"color" : [ 0.294118, 0.313726, 0.337255, 1 ],
										"color1" : [ 0.454902, 0.462745, 0.482353, 0.0 ],
										"color2" : [ 0.290196, 0.309804, 0.301961, 1.0 ],
										"proportion" : 0.39,
										"type" : "color"
									}

								}
,
								"parentstyle" : "",
								"multi" : 0
							}
, 							{
								"name" : "Audiomix",
								"default" : 								{
									"bgfillcolor" : 									{
										"angle" : 270.0,
										"color" : [ 0.290196, 0.309804, 0.301961, 1.0 ],
										"color1" : [ 0.376471, 0.384314, 0.4, 1.0 ],
										"color2" : [ 0.290196, 0.309804, 0.301961, 1.0 ],
										"proportion" : 0.39,
										"type" : "gradient"
									}

								}
,
								"parentstyle" : "",
								"multi" : 0
							}
, 							{
								"name" : "ksliderWhite",
								"default" : 								{
									"color" : [ 1.0, 1.0, 1.0, 1.0 ]
								}
,
								"parentstyle" : "",
								"multi" : 0
							}
, 							{
								"name" : "newobjBlue-1",
								"default" : 								{
									"accentcolor" : [ 0.317647, 0.654902, 0.976471, 1.0 ]
								}
,
								"parentstyle" : "",
								"multi" : 0
							}
, 							{
								"name" : "newobjBrown-1",
								"default" : 								{
									"accentcolor" : [ 0.654902, 0.572549, 0.376471, 1.0 ]
								}
,
								"parentstyle" : "",
								"multi" : 0
							}
, 							{
								"name" : "newobjCyan-1",
								"default" : 								{
									"accentcolor" : [ 0.029546, 0.773327, 0.821113, 1.0 ]
								}
,
								"parentstyle" : "",
								"multi" : 0
							}
, 							{
								"name" : "newobjGreen-1",
								"default" : 								{
									"accentcolor" : [ 0.0, 0.533333, 0.168627, 1.0 ]
								}
,
								"parentstyle" : "",
								"multi" : 0
							}
, 							{
								"name" : "newobjYellow-1",
								"default" : 								{
									"accentcolor" : [ 0.82517, 0.78181, 0.059545, 1.0 ],
									"fontsize" : [ 12.059008 ]
								}
,
								"parentstyle" : "",
								"multi" : 0
							}
, 							{
								"name" : "numberGold-1",
								"default" : 								{
									"accentcolor" : [ 0.764706, 0.592157, 0.101961, 1.0 ]
								}
,
								"parentstyle" : "",
								"multi" : 0
							}
, 							{
								"name" : "rsliderGold",
								"default" : 								{
									"bgcolor" : [ 0.764706, 0.592157, 0.101961, 1.0 ],
									"color" : [ 0.646639, 0.821777, 0.854593, 1.0 ]
								}
,
								"parentstyle" : "",
								"multi" : 0
							}
, 							{
								"name" : "tap",
								"default" : 								{
									"fontname" : [ "Lato Light" ]
								}
,
								"parentstyle" : "",
								"multi" : 0
							}
 ]
					}
,
					"patching_rect" : [ 162.0, 85.0, 67.0, 22.0 ],
					"saved_object_attributes" : 					{
						"description" : "",
						"digest" : "",
						"globalpatchername" : "",
						"tags" : ""
					}
,
					"text" : "p unistroke"
				}

			}
, 			{
				"box" : 				{
					"id" : "obj-6",
					"maxclass" : "newobj",
					"numinlets" : 0,
					"numoutlets" : 0,
					"patcher" : 					{
						"fileversion" : 1,
						"appversion" : 						{
							"major" : 8,
							"minor" : 2,
							"revision" : 2,
							"architecture" : "x64",
							"modernui" : 1
						}
,
						"classnamespace" : "box",
						"rect" : [ 480.0, 113.0, 1391.0, 973.0 ],
						"bglocked" : 0,
						"openinpresentation" : 0,
						"default_fontsize" : 12.0,
						"default_fontface" : 0,
						"default_fontname" : "Arial",
						"gridonopen" : 1,
						"gridsize" : [ 15.0, 15.0 ],
						"gridsnaponopen" : 1,
						"objectsnaponopen" : 1,
						"statusbarvisible" : 2,
						"toolbarvisible" : 1,
						"lefttoolbarpinned" : 0,
						"toptoolbarpinned" : 0,
						"righttoolbarpinned" : 0,
						"bottomtoolbarpinned" : 0,
						"toolbars_unpinned_last_save" : 0,
						"tallnewobj" : 0,
						"boxanimatetime" : 200,
						"enablehscroll" : 1,
						"enablevscroll" : 1,
						"devicewidth" : 0.0,
						"description" : "",
						"digest" : "",
						"tags" : "",
						"style" : "",
						"subpatcher_template" : "",
						"showontab" : 1,
						"assistshowspatchername" : 0,
						"boxes" : [ 							{
								"box" : 								{
									"id" : "obj-10",
									"maxclass" : "newobj",
									"numinlets" : 1,
									"numoutlets" : 1,
									"outlettype" : [ "bang" ],
									"patching_rect" : [ 309.0, 214.0, 81.0, 22.0 ],
									"text" : "loadbang 500"
								}

							}
, 							{
								"box" : 								{
									"id" : "obj-9",
									"maxclass" : "newobj",
									"numinlets" : 1,
									"numoutlets" : 1,
									"outlettype" : [ "bang" ],
									"patching_rect" : [ 40.0, 343.0, 81.0, 22.0 ],
									"text" : "loadbang 100"
								}

							}
, 							{
								"box" : 								{
									"id" : "obj-8",
									"maxclass" : "newobj",
									"numinlets" : 1,
									"numoutlets" : 1,
									"outlettype" : [ "" ],
									"patching_rect" : [ 196.0, 166.0, 92.0, 22.0 ],
									"text" : "if $f1 > 1 then b"
								}

							}
, 							{
								"box" : 								{
									"id" : "obj-1",
									"maxclass" : "comment",
									"numinlets" : 1,
									"numoutlets" : 0,
									"patching_rect" : [ 153.221058964729309, 621.04950000000008, 53.0, 20.0 ],
									"text" : "Volume"
								}

							}
, 							{
								"box" : 								{
									"id" : "obj-44",
									"interpinlet" : 1,
									"maxclass" : "gain~",
									"multichannelvariant" : 0,
									"numinlets" : 2,
									"numoutlets" : 2,
									"orientation" : 2,
									"outlettype" : [ "signal", "" ],
									"parameter_enable" : 0,
									"patching_rect" : [ 115.279865000000029, 605.559418000000051, 28.0, 77.0 ]
								}

							}
, 							{
								"box" : 								{
									"id" : "obj-45",
									"maxclass" : "newobj",
									"numinlets" : 1,
									"numoutlets" : 1,
									"outlettype" : [ "signal" ],
									"patching_rect" : [ 213.266220000000033, 467.143570000000011, 34.0, 22.0 ],
									"text" : "sig~"
								}

							}
, 							{
								"box" : 								{
									"id" : "obj-4",
									"maxclass" : "newobj",
									"numinlets" : 1,
									"numoutlets" : 1,
									"outlettype" : [ "signal" ],
									"patching_rect" : [ 115.279865000000029, 467.143570000000011, 34.0, 22.0 ],
									"text" : "sig~"
								}

							}
, 							{
								"box" : 								{
									"id" : "obj-46",
									"maxclass" : "preset",
									"numinlets" : 1,
									"numoutlets" : 4,
									"outlettype" : [ "preset", "int", "preset", "int" ],
									"patching_rect" : [ 470.058014000000014, 635.559418000000051, 89.0, 17.0 ],
									"preset_data" : [ 										{
											"number" : 1,
											"data" : [ 5, "obj-24", "flonum", "float", 5000.0, 5, "obj-21", "flonum", "float", 130.809998000000007, 5, "obj-20", "flonum", "float", 2.8, 4, "obj-14", "function", "clear", 6, "obj-14", "function", "add", 0.0, 6.0, 6, "obj-14", "function", "add", 4999.999512000000323, 0.0, 4, "obj-13", "function", "clear", 6, "obj-13", "function", "add", 0.0, 0.90625, 6, "obj-13", "function", "add", 1000.0, 0.125, 6, "obj-13", "function", "add", 3000.0, 0.015062, 6, "obj-13", "function", "add", 4999.999512000000323, 0.0 ]
										}
, 										{
											"number" : 2,
											"data" : [ 5, "obj-24", "flonum", "float", 5000.0, 5, "obj-21", "flonum", "float", 130.809998000000007, 5, "obj-20", "flonum", "float", 1.005, 4, "obj-14", "function", "clear", 6, "obj-14", "function", "add", 0.0, 7.5, 6, "obj-14", "function", "add", 2706.421875, 1.875, 6, "obj-14", "function", "add", 4999.999512000000323, 0.0, 4, "obj-13", "function", "clear", 6, "obj-13", "function", "add", 0.0, 0.90625, 6, "obj-13", "function", "add", 1000.0, 0.125, 6, "obj-13", "function", "add", 3000.0, 0.015062, 6, "obj-13", "function", "add", 4999.999512000000323, 0.0 ]
										}
, 										{
											"number" : 3,
											"data" : [ 5, "obj-24", "flonum", "float", 400.0, 5, "obj-21", "flonum", "float", 130.809998000000007, 5, "obj-20", "flonum", "float", 0.707, 4, "obj-14", "function", "clear", 6, "obj-14", "function", "add", 0.0, 1.5, 6, "obj-14", "function", "add", 399.999969000000021, 0.0, 4, "obj-13", "function", "clear", 6, "obj-13", "function", "add", 0.0, 0.6875, 6, "obj-13", "function", "add", 40.366970000000002, 0.84375, 6, "obj-13", "function", "add", 99.082565000000002, 0.765625, 6, "obj-13", "function", "add", 161.467880000000008, 0.09375, 6, "obj-13", "function", "add", 399.999969000000021, 0.0 ]
										}
, 										{
											"number" : 4,
											"data" : [ 5, "obj-24", "flonum", "float", 400.0, 5, "obj-21", "flonum", "float", 392.0, 5, "obj-20", "flonum", "float", 1.0, 4, "obj-14", "function", "clear", 6, "obj-14", "function", "add", 0.0, 0.0, 6, "obj-14", "function", "add", 51.376143999999996, 5.25, 6, "obj-14", "function", "add", 80.733940000000004, 4.5, 6, "obj-14", "function", "add", 297.247681, 0.375, 6, "obj-14", "function", "add", 399.999969000000021, 0.0, 4, "obj-13", "function", "clear", 6, "obj-13", "function", "add", 0.0, 0.0, 6, "obj-13", "function", "add", 51.376143999999996, 1.0, 6, "obj-13", "function", "add", 91.743117999999996, 0.734375, 6, "obj-13", "function", "add", 326.605499000000009, 0.6875, 6, "obj-13", "function", "add", 399.999969000000021, 0.0 ]
										}
, 										{
											"number" : 5,
											"data" : [ 5, "obj-24", "flonum", "float", 200.0, 5, "obj-21", "flonum", "float", 1046.59997599999997, 5, "obj-20", "flonum", "float", 1.0, 4, "obj-14", "function", "clear", 6, "obj-14", "function", "add", 0.0, 0.0, 6, "obj-14", "function", "add", 25.688071999999998, 5.25, 6, "obj-14", "function", "add", 40.366970000000002, 4.5, 6, "obj-14", "function", "add", 148.623840000000001, 0.375, 6, "obj-14", "function", "add", 199.999985000000009, 0.0, 4, "obj-13", "function", "clear", 6, "obj-13", "function", "add", 0.0, 0.0, 6, "obj-13", "function", "add", 25.688071999999998, 1.0, 6, "obj-13", "function", "add", 45.871558999999998, 0.734375, 6, "obj-13", "function", "add", 163.302750000000003, 0.6875, 6, "obj-13", "function", "add", 199.999985000000009, 0.0 ]
										}
, 										{
											"number" : 6,
											"data" : [ 5, "obj-24", "flonum", "float", 200.0, 5, "obj-21", "flonum", "float", 1046.59997599999997, 5, "obj-20", "flonum", "float", 1.0, 4, "obj-14", "function", "clear", 6, "obj-14", "function", "add", 0.0, 1.875, 6, "obj-14", "function", "add", 51.376143999999996, 0.375, 6, "obj-14", "function", "add", 199.999985000000009, 0.0, 4, "obj-13", "function", "clear", 6, "obj-13", "function", "add", 0.0, 1.0, 6, "obj-13", "function", "add", 49.541283, 0.125, 6, "obj-13", "function", "add", 135.779816000000011, 0.015625, 6, "obj-13", "function", "add", 199.999985000000009, 0.0 ]
										}
, 										{
											"number" : 7,
											"data" : [ 5, "obj-24", "flonum", "float", 2000.0, 5, "obj-21", "flonum", "float", 392.0, 5, "obj-20", "flonum", "float", 4.0, 4, "obj-14", "function", "clear", 6, "obj-14", "function", "add", 18.348623, 0.0, 6, "obj-14", "function", "add", 477.064209000000005, 0.75, 6, "obj-14", "function", "add", 1633.027466000000004, 0.75, 6, "obj-14", "function", "add", 1999.999878000000081, 0.0, 4, "obj-13", "function", "clear", 6, "obj-13", "function", "add", 18.348623, 0.0, 6, "obj-13", "function", "add", 495.412810999999977, 1.0, 6, "obj-13", "function", "add", 1284.40356399999996, 0.78125, 6, "obj-13", "function", "add", 1688.073364000000083, 0.21875, 6, "obj-13", "function", "add", 1999.999878000000081, 0.0 ]
										}
, 										{
											"number" : 8,
											"data" : [ 5, "obj-24", "flonum", "float", 2000.0, 5, "obj-21", "flonum", "float", 61.400002000000001, 5, "obj-20", "flonum", "float", 2.5, 4, "obj-14", "function", "clear", 6, "obj-14", "function", "add", 0.0, 8.25, 6, "obj-14", "function", "add", 660.550415000000044, 23.25, 6, "obj-14", "function", "add", 1045.87146000000007, 7.875, 6, "obj-14", "function", "add", 1357.798095999999987, 10.875, 6, "obj-14", "function", "add", 1541.284302000000025, 1.875, 6, "obj-14", "function", "add", 1743.1191409999999, 3.0, 6, "obj-14", "function", "add", 1999.999755999999934, 0.0, 4, "obj-13", "function", "clear", 6, "obj-13", "function", "add", 0.0, 0.0, 6, "obj-13", "function", "add", 36.697246999999997, 1.0, 6, "obj-13", "function", "add", 348.623839999999973, 0.703125, 6, "obj-13", "function", "add", 1357.798095999999987, 0.671875, 6, "obj-13", "function", "add", 1761.467773000000079, 0.078125, 6, "obj-13", "function", "add", 1999.999755999999934, 0.0 ]
										}
 ]
								}

							}
, 							{
								"box" : 								{
									"id" : "obj-47",
									"maxclass" : "comment",
									"numinlets" : 1,
									"numoutlets" : 0,
									"patching_rect" : [ 470.058014000000014, 612.702972000000045, 100.0, 20.0 ],
									"text" : "FM tone settings"
								}

							}
, 							{
								"box" : 								{
									"id" : "obj-7",
									"maxclass" : "button",
									"numinlets" : 1,
									"numoutlets" : 1,
									"outlettype" : [ "bang" ],
									"parameter_enable" : 0,
									"patching_rect" : [ 129.921505000000025, 274.668316000000004, 24.0, 24.0 ],
									"style" : "buttonGold"
								}

							}
, 							{
								"box" : 								{
									"id" : "obj-48",
									"maxclass" : "comment",
									"numinlets" : 1,
									"numoutlets" : 0,
									"patching_rect" : [ 629.989776000000006, 467.143570000000011, 65.0, 20.0 ],
									"text" : "Amplitude"
								}

							}
, 							{
								"box" : 								{
									"id" : "obj-49",
									"maxclass" : "comment",
									"numinlets" : 1,
									"numoutlets" : 0,
									"patching_rect" : [ 426.133117000000027, 467.143570000000011, 103.0, 20.0 ],
									"text" : "Modulation Index"
								}

							}
, 							{
								"box" : 								{
									"bgcolor" : [ 0.454902, 0.462745, 0.482353, 1.0 ],
									"bgcolor2" : [ 0.290196, 0.309804, 0.301961, 1.0 ],
									"bgfillcolor_angle" : 270.0,
									"bgfillcolor_autogradient" : 0.0,
									"bgfillcolor_color" : [ 0.290196, 0.309804, 0.301961, 1.0 ],
									"bgfillcolor_color1" : [ 0.454902, 0.462745, 0.482353, 1.0 ],
									"bgfillcolor_color2" : [ 0.290196, 0.309804, 0.301961, 1.0 ],
									"bgfillcolor_proportion" : 0.39,
									"bgfillcolor_type" : "gradient",
									"gradient" : 1,
									"id" : "obj-12",
									"maxclass" : "message",
									"numinlets" : 2,
									"numoutlets" : 1,
									"outlettype" : [ "" ],
									"patching_rect" : [ 309.0, 304.742576999999983, 84.0, 22.0 ],
									"text" : "setdomain $1"
								}

							}
, 							{
								"box" : 								{
									"addpoints" : [ 4.587155416897815, 0.0, 0, 140.811950301075399, 0.223331209677419, 0, 499.999933191862112, 0.0, 0 ],
									"domain" : 500.0,
									"id" : "obj-13",
									"maxclass" : "function",
									"numinlets" : 1,
									"numoutlets" : 4,
									"outlettype" : [ "float", "", "", "bang" ],
									"parameter_enable" : 0,
									"patching_rect" : [ 541.013641000000007, 346.846535000000017, 202.0, 87.0 ]
								}

							}
, 							{
								"box" : 								{
									"addpoints" : [ 4.587155416897815, 0.0, 0, 128.94736842105246, 5.747045806451619, 0, 423.684210526314985, 7.295432903225813, 0, 499.999963691861296, 0.0, 0 ],
									"domain" : 500.0,
									"id" : "obj-14",
									"maxclass" : "function",
									"numinlets" : 1,
									"numoutlets" : 4,
									"outlettype" : [ "float", "", "", "bang" ],
									"parameter_enable" : 0,
									"patching_rect" : [ 309.0, 346.846535000000017, 202.0, 87.0 ],
									"range" : [ 0.0, 24.0 ]
								}

							}
, 							{
								"box" : 								{
									"id" : "obj-15",
									"maxclass" : "comment",
									"numinlets" : 1,
									"numoutlets" : 0,
									"patching_rect" : [ 215.518768000000023, 397.371292000000039, 75.0, 20.0 ],
									"text" : "Harmonicity"
								}

							}
, 							{
								"box" : 								{
									"id" : "obj-16",
									"local" : 1,
									"maxclass" : "ezdac~",
									"numinlets" : 2,
									"numoutlets" : 0,
									"patching_rect" : [ 115.279865000000029, 712.623779000000013, 44.0, 44.0 ],
									"prototypename" : "helpfile"
								}

							}
, 							{
								"box" : 								{
									"id" : "obj-17",
									"maxclass" : "newobj",
									"numinlets" : 2,
									"numoutlets" : 2,
									"outlettype" : [ "signal", "bang" ],
									"patching_rect" : [ 370.000000000000057, 467.143570000000011, 37.0, 22.0 ],
									"text" : "line~"
								}

							}
, 							{
								"box" : 								{
									"id" : "obj-18",
									"maxclass" : "newobj",
									"numinlets" : 2,
									"numoutlets" : 2,
									"outlettype" : [ "signal", "bang" ],
									"patching_rect" : [ 602.013641000000007, 505.638611000000026, 37.0, 22.0 ],
									"text" : "line~"
								}

							}
, 							{
								"box" : 								{
									"id" : "obj-19",
									"maxclass" : "newobj",
									"numinlets" : 2,
									"numoutlets" : 1,
									"outlettype" : [ "signal" ],
									"patching_rect" : [ 115.279865000000029, 544.133667000000059, 29.5, 22.0 ],
									"text" : "*~"
								}

							}
, 							{
								"box" : 								{
									"format" : 6,
									"id" : "obj-20",
									"maxclass" : "flonum",
									"minimum" : 0.0,
									"numinlets" : 1,
									"numoutlets" : 2,
									"outlettype" : [ "", "bang" ],
									"parameter_enable" : 0,
									"patching_rect" : [ 213.266220000000033, 426.242569000000003, 62.0, 22.0 ],
									"style" : "numberGold",
									"tricolor" : [ 0.764706, 0.592157, 0.101961, 1.0 ],
									"triscale" : 0.9
								}

							}
, 							{
								"box" : 								{
									"format" : 6,
									"id" : "obj-21",
									"maxclass" : "flonum",
									"minimum" : 0.0,
									"numinlets" : 1,
									"numoutlets" : 2,
									"outlettype" : [ "", "bang" ],
									"parameter_enable" : 0,
									"patching_rect" : [ 115.279865000000029, 426.242569000000003, 62.0, 22.0 ],
									"style" : "numberGold",
									"tricolor" : [ 0.764706, 0.592157, 0.101961, 1.0 ],
									"triscale" : 0.9
								}

							}
, 							{
								"box" : 								{
									"id" : "obj-22",
									"maxclass" : "newobj",
									"numinlets" : 3,
									"numoutlets" : 1,
									"outlettype" : [ "signal" ],
									"patching_rect" : [ 115.279865000000029, 505.638611000000026, 193.0, 22.0 ],
									"style" : "newobjYellow",
									"text" : "simpleFM~"
								}

							}
, 							{
								"box" : 								{
									"id" : "obj-23",
									"maxclass" : "comment",
									"numinlets" : 1,
									"numoutlets" : 0,
									"patching_rect" : [ 117.532425000000032, 397.371292000000039, 80.0, 20.0 ],
									"text" : "Carrier Freq."
								}

							}
, 							{
								"box" : 								{
									"format" : 6,
									"id" : "obj-24",
									"maxclass" : "flonum",
									"minimum" : 0.0,
									"numinlets" : 1,
									"numoutlets" : 2,
									"outlettype" : [ "", "bang" ],
									"parameter_enable" : 0,
									"patching_rect" : [ 309.0, 262.668316000000004, 62.0, 22.0 ],
									"style" : "numberGold",
									"triscale" : 0.9
								}

							}
, 							{
								"box" : 								{
									"id" : "obj-35",
									"linecount" : 2,
									"maxclass" : "comment",
									"numinlets" : 1,
									"numoutlets" : 0,
									"patching_rect" : [ 153.221058964729309, 53.0, 122.0, 33.0 ],
									"text" : "\"novelty\" of the last gesture segment"
								}

							}
, 							{
								"box" : 								{
									"id" : "obj-34",
									"linecount" : 2,
									"maxclass" : "comment",
									"numinlets" : 1,
									"numoutlets" : 0,
									"patching_rect" : [ 508.0, 53.0, 203.0, 33.0 ],
									"text" : "sonification maps novelty to amount of (inharmonic) overtones in attack"
								}

							}
, 							{
								"box" : 								{
									"format" : 6,
									"id" : "obj-30",
									"maxclass" : "flonum",
									"numinlets" : 1,
									"numoutlets" : 2,
									"outlettype" : [ "", "bang" ],
									"parameter_enable" : 0,
									"patching_rect" : [ 385.0, 77.0, 50.0, 22.0 ]
								}

							}
, 							{
								"box" : 								{
									"id" : "obj-28",
									"maxclass" : "newobj",
									"numinlets" : 6,
									"numoutlets" : 1,
									"outlettype" : [ "" ],
									"patching_rect" : [ 385.0, 53.0, 100.0, 22.0 ],
									"text" : "scale 0. 1. 0. 15."
								}

							}
, 							{
								"box" : 								{
									"id" : "obj-27",
									"maxclass" : "message",
									"numinlets" : 2,
									"numoutlets" : 1,
									"outlettype" : [ "" ],
									"patching_rect" : [ 385.0, 101.0, 50.0, 22.0 ],
									"text" : "0 0 $1"
								}

							}
, 							{
								"box" : 								{
									"format" : 6,
									"id" : "obj-6",
									"maxclass" : "flonum",
									"numinlets" : 1,
									"numoutlets" : 2,
									"outlettype" : [ "", "bang" ],
									"parameter_enable" : 0,
									"patching_rect" : [ 381.221058964729309, 170.0, 84.0, 22.0 ]
								}

							}
, 							{
								"box" : 								{
									"id" : "obj-5",
									"maxclass" : "newobj",
									"numinlets" : 1,
									"numoutlets" : 1,
									"outlettype" : [ "" ],
									"patching_rect" : [ 381.221058964729309, 146.0, 100.0, 22.0 ],
									"text" : "expr log($f1 + 1)"
								}

							}
, 							{
								"box" : 								{
									"id" : "obj-3",
									"maxclass" : "button",
									"numinlets" : 1,
									"numoutlets" : 1,
									"outlettype" : [ "bang" ],
									"parameter_enable" : 0,
									"patching_rect" : [ 60.478270471096039, 64.0, 24.0, 24.0 ]
								}

							}
, 							{
								"box" : 								{
									"format" : 6,
									"id" : "obj-2",
									"maxclass" : "flonum",
									"numinlets" : 1,
									"numoutlets" : 2,
									"outlettype" : [ "", "bang" ],
									"parameter_enable" : 0,
									"patching_rect" : [ 97.221058964729309, 64.0, 50.0, 22.0 ]
								}

							}
, 							{
								"box" : 								{
									"bgcolor" : [ 0.682352941176471, 0.003921568627451, 0.015686274509804, 1.0 ],
									"id" : "obj-51",
									"maxclass" : "newobj",
									"numinlets" : 0,
									"numoutlets" : 1,
									"outlettype" : [ "" ],
									"patching_rect" : [ 97.221058964729309, 30.5, 54.0, 22.0 ],
									"text" : "r novelty"
								}

							}
 ],
						"lines" : [ 							{
								"patchline" : 								{
									"destination" : [ "obj-24", 0 ],
									"source" : [ "obj-10", 0 ]
								}

							}
, 							{
								"patchline" : 								{
									"destination" : [ "obj-13", 0 ],
									"midpoints" : [ 318.5, 332.410888999999997, 550.513641000000007, 332.410888999999997 ],
									"order" : 0,
									"source" : [ "obj-12", 0 ]
								}

							}
, 							{
								"patchline" : 								{
									"destination" : [ "obj-14", 0 ],
									"order" : 1,
									"source" : [ "obj-12", 0 ]
								}

							}
, 							{
								"patchline" : 								{
									"destination" : [ "obj-18", 0 ],
									"source" : [ "obj-13", 1 ]
								}

							}
, 							{
								"patchline" : 								{
									"destination" : [ "obj-17", 0 ],
									"source" : [ "obj-14", 1 ]
								}

							}
, 							{
								"patchline" : 								{
									"destination" : [ "obj-22", 2 ],
									"midpoints" : [ 379.500000000000057, 497.819304999999986, 298.779865000000029, 497.819304999999986 ],
									"source" : [ "obj-17", 0 ]
								}

							}
, 							{
								"patchline" : 								{
									"destination" : [ "obj-19", 1 ],
									"midpoints" : [ 611.513641000000007, 537.386138999999957, 135.279865000000029, 537.386138999999957 ],
									"source" : [ "obj-18", 0 ]
								}

							}
, 							{
								"patchline" : 								{
									"destination" : [ "obj-44", 0 ],
									"source" : [ "obj-19", 0 ]
								}

							}
, 							{
								"patchline" : 								{
									"destination" : [ "obj-28", 0 ],
									"order" : 0,
									"source" : [ "obj-2", 0 ]
								}

							}
, 							{
								"patchline" : 								{
									"destination" : [ "obj-5", 0 ],
									"order" : 1,
									"source" : [ "obj-2", 0 ]
								}

							}
, 							{
								"patchline" : 								{
									"destination" : [ "obj-8", 0 ],
									"order" : 2,
									"source" : [ "obj-2", 0 ]
								}

							}
, 							{
								"patchline" : 								{
									"destination" : [ "obj-45", 0 ],
									"source" : [ "obj-20", 0 ]
								}

							}
, 							{
								"patchline" : 								{
									"destination" : [ "obj-4", 0 ],
									"source" : [ "obj-21", 0 ]
								}

							}
, 							{
								"patchline" : 								{
									"destination" : [ "obj-19", 0 ],
									"source" : [ "obj-22", 0 ]
								}

							}
, 							{
								"patchline" : 								{
									"destination" : [ "obj-12", 0 ],
									"source" : [ "obj-24", 0 ]
								}

							}
, 							{
								"patchline" : 								{
									"destination" : [ "obj-30", 0 ],
									"source" : [ "obj-28", 0 ]
								}

							}
, 							{
								"patchline" : 								{
									"destination" : [ "obj-27", 0 ],
									"source" : [ "obj-30", 0 ]
								}

							}
, 							{
								"patchline" : 								{
									"destination" : [ "obj-22", 0 ],
									"source" : [ "obj-4", 0 ]
								}

							}
, 							{
								"patchline" : 								{
									"destination" : [ "obj-16", 1 ],
									"order" : 0,
									"source" : [ "obj-44", 0 ]
								}

							}
, 							{
								"patchline" : 								{
									"destination" : [ "obj-16", 0 ],
									"order" : 1,
									"source" : [ "obj-44", 0 ]
								}

							}
, 							{
								"patchline" : 								{
									"destination" : [ "obj-22", 1 ],
									"source" : [ "obj-45", 0 ]
								}

							}
, 							{
								"patchline" : 								{
									"destination" : [ "obj-6", 0 ],
									"source" : [ "obj-5", 0 ]
								}

							}
, 							{
								"patchline" : 								{
									"destination" : [ "obj-2", 0 ],
									"order" : 0,
									"source" : [ "obj-51", 0 ]
								}

							}
, 							{
								"patchline" : 								{
									"destination" : [ "obj-3", 0 ],
									"order" : 1,
									"source" : [ "obj-51", 0 ]
								}

							}
, 							{
								"patchline" : 								{
									"destination" : [ "obj-13", 0 ],
									"midpoints" : [ 139.421505000000025, 332.410888999999997, 550.513641000000007, 332.410888999999997 ],
									"order" : 0,
									"source" : [ "obj-7", 0 ]
								}

							}
, 							{
								"patchline" : 								{
									"destination" : [ "obj-14", 0 ],
									"midpoints" : [ 139.421505000000025, 332.410888999999997, 318.5, 332.410888999999997 ],
									"order" : 1,
									"source" : [ "obj-7", 0 ]
								}

							}
, 							{
								"patchline" : 								{
									"destination" : [ "obj-7", 0 ],
									"source" : [ "obj-8", 0 ]
								}

							}
, 							{
								"patchline" : 								{
									"destination" : [ "obj-20", 0 ],
									"order" : 0,
									"source" : [ "obj-9", 0 ]
								}

							}
, 							{
								"patchline" : 								{
									"destination" : [ "obj-21", 0 ],
									"order" : 1,
									"source" : [ "obj-9", 0 ]
								}

							}
 ]
					}
,
					"patching_rect" : [ 343.0, 85.0, 67.0, 22.0 ],
					"saved_object_attributes" : 					{
						"description" : "",
						"digest" : "",
						"globalpatchername" : "",
						"tags" : ""
					}
,
					"text" : "p feedback"
				}

			}
, 			{
				"box" : 				{
					"id" : "obj-5",
					"maxclass" : "newobj",
					"numinlets" : 0,
					"numoutlets" : 0,
					"patcher" : 					{
						"fileversion" : 1,
						"appversion" : 						{
							"major" : 8,
							"minor" : 2,
							"revision" : 2,
							"architecture" : "x64",
							"modernui" : 1
						}
,
						"classnamespace" : "box",
						"rect" : [ 0.0, 26.0, 1391.0, 973.0 ],
						"bglocked" : 0,
						"openinpresentation" : 0,
						"default_fontsize" : 12.0,
						"default_fontface" : 0,
						"default_fontname" : "Arial",
						"gridonopen" : 1,
						"gridsize" : [ 15.0, 15.0 ],
						"gridsnaponopen" : 1,
						"objectsnaponopen" : 1,
						"statusbarvisible" : 2,
						"toolbarvisible" : 1,
						"lefttoolbarpinned" : 0,
						"toptoolbarpinned" : 0,
						"righttoolbarpinned" : 0,
						"bottomtoolbarpinned" : 0,
						"toolbars_unpinned_last_save" : 0,
						"tallnewobj" : 0,
						"boxanimatetime" : 200,
						"enablehscroll" : 1,
						"enablevscroll" : 1,
						"devicewidth" : 0.0,
						"description" : "",
						"digest" : "",
						"tags" : "",
						"style" : "",
						"subpatcher_template" : "",
						"showontab" : 1,
						"assistshowspatchername" : 0,
						"boxes" : [ 							{
								"box" : 								{
									"id" : "obj-4",
									"maxclass" : "button",
									"numinlets" : 1,
									"numoutlets" : 1,
									"outlettype" : [ "bang" ],
									"parameter_enable" : 0,
									"patching_rect" : [ 360.5, 483.524477005004883, 24.0, 24.0 ]
								}

							}
, 							{
								"box" : 								{
									"id" : "obj-49",
									"maxclass" : "comment",
									"numinlets" : 1,
									"numoutlets" : 0,
									"patching_rect" : [ 807.0, 327.0, 111.0, 20.0 ],
									"text" : "THEN...."
								}

							}
, 							{
								"box" : 								{
									"id" : "obj-24",
									"linecount" : 3,
									"maxclass" : "comment",
									"numinlets" : 1,
									"numoutlets" : 0,
									"patching_rect" : [ 798.356460500000139, 102.150348663330078, 295.0, 47.0 ],
									"text" : "DO THIS  only the first time you use this patch:\nclick on all of these in turn, each time waiting until the node.script debug tool below turns green."
								}

							}
, 							{
								"box" : 								{
									"id" : "obj-23",
									"maxclass" : "message",
									"numinlets" : 2,
									"numoutlets" : 1,
									"outlettype" : [ "" ],
									"patching_rect" : [ 803.5, 301.0, 204.0, 22.0 ],
									"text" : "script npm install compute-histogram"
								}

							}
, 							{
								"box" : 								{
									"id" : "obj-14",
									"maxclass" : "message",
									"numinlets" : 2,
									"numoutlets" : 1,
									"outlettype" : [ "" ],
									"patching_rect" : [ 787.356460500000139, 61.0, 259.0, 22.0 ],
									"text" : "script npm install ml-savitzky-golay-generalized"
								}

							}
, 							{
								"box" : 								{
									"id" : "obj-1",
									"maxclass" : "message",
									"numinlets" : 2,
									"numoutlets" : 1,
									"outlettype" : [ "" ],
									"patching_rect" : [ 803.5, 274.0, 143.0, 22.0 ],
									"text" : "script npm install poolifier"
								}

							}
, 							{
								"box" : 								{
									"id" : "obj-34",
									"maxclass" : "message",
									"numinlets" : 2,
									"numoutlets" : 1,
									"outlettype" : [ "" ],
									"patching_rect" : [ 803.5, 250.0, 157.0, 22.0 ],
									"text" : "script npm install everpolate"
								}

							}
, 							{
								"box" : 								{
									"id" : "obj-45",
									"maxclass" : "newobj",
									"numinlets" : 2,
									"numoutlets" : 2,
									"outlettype" : [ "", "" ],
									"patching_rect" : [ 598.5, 580.524477005004883, 58.0, 22.0 ],
									"text" : "route dtw"
								}

							}
, 							{
								"box" : 								{
									"bgcolor" : [ 0.682352941176471, 0.003921568627451, 0.015686274509804, 1.0 ],
									"id" : "obj-35",
									"maxclass" : "newobj",
									"numinlets" : 1,
									"numoutlets" : 0,
									"patching_rect" : [ 598.5, 650.0, 56.0, 22.0 ],
									"text" : "s novelty"
								}

							}
, 							{
								"box" : 								{
									"id" : "obj-10",
									"maxclass" : "newobj",
									"numinlets" : 2,
									"numoutlets" : 2,
									"outlettype" : [ "", "" ],
									"patching_rect" : [ 360.5, 435.524477005004883, 103.0, 22.0 ],
									"text" : "route logging_dtw"
								}

							}
, 							{
								"box" : 								{
									"id" : "obj-30",
									"maxclass" : "newobj",
									"numinlets" : 1,
									"numoutlets" : 1,
									"outlettype" : [ "" ],
									"patching_rect" : [ 360.5, 459.524477005004883, 78.0, 22.0 ],
									"text" : "prepend /dtw"
								}

							}
, 							{
								"box" : 								{
									"id" : "obj-20",
									"maxclass" : "newobj",
									"numinlets" : 2,
									"numoutlets" : 2,
									"outlettype" : [ "", "" ],
									"patching_rect" : [ 470.5, 435.524477005004883, 108.0, 22.0 ],
									"text" : "route logging_data"
								}

							}
, 							{
								"box" : 								{
									"id" : "obj-48",
									"maxclass" : "button",
									"numinlets" : 1,
									"numoutlets" : 1,
									"outlettype" : [ "bang" ],
									"parameter_enable" : 0,
									"patching_rect" : [ 470.5, 483.524477005004883, 24.0, 24.0 ]
								}

							}
, 							{
								"box" : 								{
									"id" : "obj-11",
									"maxclass" : "newobj",
									"numinlets" : 1,
									"numoutlets" : 1,
									"outlettype" : [ "" ],
									"patching_rect" : [ 470.5, 459.524477005004883, 83.0, 22.0 ],
									"text" : "prepend /data"
								}

							}
, 							{
								"box" : 								{
									"id" : "obj-13",
									"maxclass" : "newobj",
									"numinlets" : 1,
									"numoutlets" : 3,
									"outlettype" : [ "", "", "OSCTimeTag" ],
									"patching_rect" : [ 360.5, 580.524477005004883, 143.0, 22.0 ],
									"text" : "OpenSoundControl 2000"
								}

							}
, 							{
								"box" : 								{
									"id" : "obj-16",
									"maxclass" : "newobj",
									"numinlets" : 1,
									"numoutlets" : 0,
									"patching_rect" : [ 360.5, 604.524477005004883, 138.0, 22.0 ],
									"text" : "udpsend 127.0.0.1 8889"
								}

							}
, 							{
								"box" : 								{
									"id" : "obj-7",
									"maxclass" : "message",
									"numinlets" : 2,
									"numoutlets" : 1,
									"outlettype" : [ "" ],
									"patching_rect" : [ 803.5, 226.0, 219.0, 22.0 ],
									"text" : "script npm install dynamic-time-warping"
								}

							}
, 							{
								"box" : 								{
									"id" : "obj-18",
									"maxclass" : "message",
									"numinlets" : 2,
									"numoutlets" : 1,
									"outlettype" : [ "" ],
									"patching_rect" : [ 803.5, 202.0, 193.0, 22.0 ],
									"text" : "script npm install ml-savitzky-golay"
								}

							}
, 							{
								"box" : 								{
									"id" : "obj-44",
									"maxclass" : "message",
									"numinlets" : 2,
									"numoutlets" : 1,
									"outlettype" : [ "" ],
									"patching_rect" : [ 803.5, 178.0, 113.0, 22.0 ],
									"text" : "script npm install fili"
								}

							}
, 							{
								"box" : 								{
									"id" : "obj-40",
									"maxclass" : "message",
									"numinlets" : 2,
									"numoutlets" : 1,
									"outlettype" : [ "" ],
									"patching_rect" : [ 803.5, 154.0, 133.0, 22.0 ],
									"text" : "script npm install numjs"
								}

							}
, 							{
								"box" : 								{
									"id" : "obj-31",
									"maxclass" : "message",
									"numinlets" : 2,
									"numoutlets" : 1,
									"outlettype" : [ "" ],
									"patching_rect" : [ 807.0, 408.0, 66.0, 22.0 ],
									"text" : "script start"
								}

							}
, 							{
								"box" : 								{
									"id" : "obj-37",
									"maxclass" : "newobj",
									"numinlets" : 3,
									"numoutlets" : 3,
									"outlettype" : [ "", "", "" ],
									"patching_rect" : [ 787.356460500000139, 517.0, 131.0, 22.0 ],
									"text" : "routepass running start"
								}

							}
, 							{
								"box" : 								{
									"bgmode" : 0,
									"border" : 0,
									"clickthrough" : 0,
									"enablehscroll" : 0,
									"enablevscroll" : 0,
									"id" : "obj-28",
									"lockeddragscroll" : 0,
									"lockedsize" : 0,
									"maxclass" : "bpatcher",
									"name" : "n4m.monitor.maxpat",
									"numinlets" : 1,
									"numoutlets" : 1,
									"offset" : [ 0.0, 0.0 ],
									"outlettype" : [ "bang" ],
									"patching_rect" : [ 787.356460500000139, 551.0, 400.0, 220.0 ],
									"viewvisibility" : 1
								}

							}
, 							{
								"box" : 								{
									"bgcolor" : [ 0.011764705882353, 0.537254901960784, 0.545098039215686, 1.0 ],
									"id" : "obj-39",
									"maxclass" : "newobj",
									"numinlets" : 1,
									"numoutlets" : 2,
									"outlettype" : [ "", "" ],
									"patching_rect" : [ 415.0, 237.349651336669922, 105.0, 22.0 ],
									"saved_object_attributes" : 									{
										"autostart" : 1,
										"defer" : 0,
										"node_bin_path" : "",
										"npm_bin_path" : "",
										"watch" : 0
									}
,
									"text" : "node.script filter.js"
								}

							}
, 							{
								"box" : 								{
									"id" : "obj-9",
									"maxclass" : "newobj",
									"numinlets" : 1,
									"numoutlets" : 1,
									"outlettype" : [ "" ],
									"patching_rect" : [ 415.0, 123.0, 123.0, 22.0 ],
									"text" : "prepend new_sample"
								}

							}
, 							{
								"box" : 								{
									"bgcolor" : [ 0.682352941176471, 0.003921568627451, 0.015686274509804, 1.0 ],
									"id" : "obj-3",
									"maxclass" : "newobj",
									"numinlets" : 0,
									"numoutlets" : 1,
									"outlettype" : [ "" ],
									"patching_rect" : [ 415.0, 99.0, 72.0, 22.0 ],
									"text" : "r input_data"
								}

							}
, 							{
								"box" : 								{
									"id" : "obj-2",
									"linecount" : 20,
									"maxclass" : "comment",
									"numinlets" : 1,
									"numoutlets" : 0,
									"patching_rect" : [ 52.0, 76.650348663330078, 303.0, 275.0 ],
									"text" : "PROCESSING\n\nThe operations to be carried out are:\n- low pass filtering\n- computation of first derivative of position\n- computation of speed and derivative of orientation\n\n1. filtering\nFor each new stroke, the filters' states need to be reset, so that there is no interference between independent strokes. This is true for low-pass filtering and for savgol filtering.\n\n2. derivatives\nThe segmentation is performed based on the signal amplitude. This should accomodate for a threshold.\n\n3. features\nSpeed and orientation derivatives can be computed from the position's derivatives."
								}

							}
, 							{
								"box" : 								{
									"angle" : 270.0,
									"bordercolor" : [ 0.313725490196078, 0.266666666666667, 0.611764705882353, 1.0 ],
									"grad1" : [ 1.0, 0.968627450980392, 0.968627450980392, 1.0 ],
									"grad2" : [ 0.537254901960784, 0.537254901960784, 0.537254901960784, 1.0 ],
									"id" : "obj-41",
									"maxclass" : "panel",
									"mode" : 1,
									"numinlets" : 1,
									"numoutlets" : 0,
									"patching_rect" : [ 783.5, 98.0, 320.0, 253.650348663330078 ],
									"proportion" : 0.5
								}

							}
, 							{
								"box" : 								{
									"id" : "obj-42",
									"maxclass" : "comment",
									"numinlets" : 1,
									"numoutlets" : 0,
									"patching_rect" : [ 803.5, 386.0, 111.0, 20.0 ],
									"text" : "start the script!"
								}

							}
, 							{
								"box" : 								{
									"angle" : 270.0,
									"bordercolor" : [ 0.313725490196078, 0.266666666666667, 0.611764705882353, 1.0 ],
									"grad1" : [ 1.0, 0.968627450980392, 0.968627450980392, 1.0 ],
									"grad2" : [ 0.2, 0.2, 0.2, 1.0 ],
									"id" : "obj-43",
									"maxclass" : "panel",
									"mode" : 1,
									"numinlets" : 1,
									"numoutlets" : 0,
									"patching_rect" : [ 783.5, 377.0, 320.0, 63.0 ],
									"proportion" : 0.5
								}

							}
 ],
						"lines" : [ 							{
								"patchline" : 								{
									"destination" : [ "obj-39", 0 ],
									"source" : [ "obj-1", 0 ]
								}

							}
, 							{
								"patchline" : 								{
									"destination" : [ "obj-30", 0 ],
									"source" : [ "obj-10", 0 ]
								}

							}
, 							{
								"patchline" : 								{
									"destination" : [ "obj-13", 0 ],
									"order" : 1,
									"source" : [ "obj-11", 0 ]
								}

							}
, 							{
								"patchline" : 								{
									"destination" : [ "obj-48", 0 ],
									"order" : 0,
									"source" : [ "obj-11", 0 ]
								}

							}
, 							{
								"patchline" : 								{
									"destination" : [ "obj-16", 0 ],
									"source" : [ "obj-13", 0 ]
								}

							}
, 							{
								"patchline" : 								{
									"destination" : [ "obj-39", 0 ],
									"source" : [ "obj-18", 0 ]
								}

							}
, 							{
								"patchline" : 								{
									"destination" : [ "obj-11", 0 ],
									"source" : [ "obj-20", 0 ]
								}

							}
, 							{
								"patchline" : 								{
									"destination" : [ "obj-39", 0 ],
									"source" : [ "obj-23", 0 ]
								}

							}
, 							{
								"patchline" : 								{
									"destination" : [ "obj-9", 0 ],
									"source" : [ "obj-3", 0 ]
								}

							}
, 							{
								"patchline" : 								{
									"destination" : [ "obj-13", 0 ],
									"order" : 0,
									"source" : [ "obj-30", 0 ]
								}

							}
, 							{
								"patchline" : 								{
									"destination" : [ "obj-4", 0 ],
									"order" : 1,
									"source" : [ "obj-30", 0 ]
								}

							}
, 							{
								"patchline" : 								{
									"destination" : [ "obj-39", 0 ],
									"source" : [ "obj-31", 0 ]
								}

							}
, 							{
								"patchline" : 								{
									"destination" : [ "obj-39", 0 ],
									"source" : [ "obj-34", 0 ]
								}

							}
, 							{
								"patchline" : 								{
									"destination" : [ "obj-28", 0 ],
									"source" : [ "obj-37", 2 ]
								}

							}
, 							{
								"patchline" : 								{
									"destination" : [ "obj-28", 0 ],
									"source" : [ "obj-37", 1 ]
								}

							}
, 							{
								"patchline" : 								{
									"destination" : [ "obj-10", 0 ],
									"order" : 2,
									"source" : [ "obj-39", 0 ]
								}

							}
, 							{
								"patchline" : 								{
									"destination" : [ "obj-20", 0 ],
									"order" : 1,
									"source" : [ "obj-39", 0 ]
								}

							}
, 							{
								"patchline" : 								{
									"destination" : [ "obj-37", 0 ],
									"source" : [ "obj-39", 1 ]
								}

							}
, 							{
								"patchline" : 								{
									"destination" : [ "obj-45", 0 ],
									"order" : 0,
									"source" : [ "obj-39", 0 ]
								}

							}
, 							{
								"patchline" : 								{
									"destination" : [ "obj-13", 0 ],
									"source" : [ "obj-4", 0 ]
								}

							}
, 							{
								"patchline" : 								{
									"destination" : [ "obj-39", 0 ],
									"source" : [ "obj-40", 0 ]
								}

							}
, 							{
								"patchline" : 								{
									"destination" : [ "obj-39", 0 ],
									"source" : [ "obj-44", 0 ]
								}

							}
, 							{
								"patchline" : 								{
									"destination" : [ "obj-35", 0 ],
									"source" : [ "obj-45", 0 ]
								}

							}
, 							{
								"patchline" : 								{
									"destination" : [ "obj-13", 0 ],
									"source" : [ "obj-48", 0 ]
								}

							}
, 							{
								"patchline" : 								{
									"destination" : [ "obj-39", 0 ],
									"source" : [ "obj-7", 0 ]
								}

							}
, 							{
								"patchline" : 								{
									"destination" : [ "obj-39", 0 ],
									"source" : [ "obj-9", 0 ]
								}

							}
 ],
						"styles" : [ 							{
								"name" : "AudioStatus_Menu",
								"default" : 								{
									"bgfillcolor" : 									{
										"angle" : 270.0,
										"autogradient" : 0,
										"color" : [ 0.294118, 0.313726, 0.337255, 1 ],
										"color1" : [ 0.454902, 0.462745, 0.482353, 0.0 ],
										"color2" : [ 0.290196, 0.309804, 0.301961, 1.0 ],
										"proportion" : 0.39,
										"type" : "color"
									}

								}
,
								"parentstyle" : "",
								"multi" : 0
							}
, 							{
								"name" : "Audiomix",
								"default" : 								{
									"bgfillcolor" : 									{
										"angle" : 270.0,
										"color" : [ 0.290196, 0.309804, 0.301961, 1.0 ],
										"color1" : [ 0.376471, 0.384314, 0.4, 1.0 ],
										"color2" : [ 0.290196, 0.309804, 0.301961, 1.0 ],
										"proportion" : 0.39,
										"type" : "gradient"
									}

								}
,
								"parentstyle" : "",
								"multi" : 0
							}
, 							{
								"name" : "ksliderWhite",
								"default" : 								{
									"color" : [ 1.0, 1.0, 1.0, 1.0 ]
								}
,
								"parentstyle" : "",
								"multi" : 0
							}
, 							{
								"name" : "newobjBlue-1",
								"default" : 								{
									"accentcolor" : [ 0.317647, 0.654902, 0.976471, 1.0 ]
								}
,
								"parentstyle" : "",
								"multi" : 0
							}
, 							{
								"name" : "newobjBrown-1",
								"default" : 								{
									"accentcolor" : [ 0.654902, 0.572549, 0.376471, 1.0 ]
								}
,
								"parentstyle" : "",
								"multi" : 0
							}
, 							{
								"name" : "newobjCyan-1",
								"default" : 								{
									"accentcolor" : [ 0.029546, 0.773327, 0.821113, 1.0 ]
								}
,
								"parentstyle" : "",
								"multi" : 0
							}
, 							{
								"name" : "newobjGreen-1",
								"default" : 								{
									"accentcolor" : [ 0.0, 0.533333, 0.168627, 1.0 ]
								}
,
								"parentstyle" : "",
								"multi" : 0
							}
, 							{
								"name" : "newobjYellow-1",
								"default" : 								{
									"accentcolor" : [ 0.82517, 0.78181, 0.059545, 1.0 ],
									"fontsize" : [ 12.059008 ]
								}
,
								"parentstyle" : "",
								"multi" : 0
							}
, 							{
								"name" : "numberGold-1",
								"default" : 								{
									"accentcolor" : [ 0.764706, 0.592157, 0.101961, 1.0 ]
								}
,
								"parentstyle" : "",
								"multi" : 0
							}
, 							{
								"name" : "rsliderGold",
								"default" : 								{
									"bgcolor" : [ 0.764706, 0.592157, 0.101961, 1.0 ],
									"color" : [ 0.646639, 0.821777, 0.854593, 1.0 ]
								}
,
								"parentstyle" : "",
								"multi" : 0
							}
, 							{
								"name" : "tap",
								"default" : 								{
									"fontname" : [ "Lato Light" ]
								}
,
								"parentstyle" : "",
								"multi" : 0
							}
 ]
					}
,
					"patching_rect" : [ 256.0, 85.0, 61.0, 22.0 ],
					"saved_object_attributes" : 					{
						"description" : "",
						"digest" : "",
						"globalpatchername" : "",
						"tags" : ""
					}
,
					"text" : "p process"
				}

			}
, 			{
				"box" : 				{
					"id" : "obj-4",
					"maxclass" : "newobj",
					"numinlets" : 0,
					"numoutlets" : 0,
					"patcher" : 					{
						"fileversion" : 1,
						"appversion" : 						{
							"major" : 8,
							"minor" : 2,
							"revision" : 2,
							"architecture" : "x64",
							"modernui" : 1
						}
,
						"classnamespace" : "box",
						"rect" : [ 0.0, 26.0, 1391.0, 973.0 ],
						"bglocked" : 0,
						"openinpresentation" : 0,
						"default_fontsize" : 12.0,
						"default_fontface" : 0,
						"default_fontname" : "Arial",
						"gridonopen" : 1,
						"gridsize" : [ 15.0, 15.0 ],
						"gridsnaponopen" : 1,
						"objectsnaponopen" : 1,
						"statusbarvisible" : 2,
						"toolbarvisible" : 1,
						"lefttoolbarpinned" : 0,
						"toptoolbarpinned" : 0,
						"righttoolbarpinned" : 0,
						"bottomtoolbarpinned" : 0,
						"toolbars_unpinned_last_save" : 0,
						"tallnewobj" : 0,
						"boxanimatetime" : 200,
						"enablehscroll" : 1,
						"enablevscroll" : 1,
						"devicewidth" : 0.0,
						"description" : "",
						"digest" : "",
						"tags" : "",
						"style" : "",
						"subpatcher_template" : "",
						"showontab" : 1,
						"assistshowspatchername" : 0,
						"boxes" : [ 							{
								"box" : 								{
									"id" : "obj-26",
									"linecount" : 30,
									"maxclass" : "comment",
									"numinlets" : 1,
									"numoutlets" : 0,
									"patching_rect" : [ 703.0, 179.0, 222.0, 422.0 ],
									"text" : "stream format:\n\nstroke_number, touching, _, _, x, y, p\n\nstroke_number: increment between no touch event\ntouching: one unless last touchpoint detected. A 0 needs to be sent for segmentation purposes.\n_, _: unsused from sensel\nx,y,p: sensel data\n\nexample:\n\n\n43 1 1 0 0.487253 0.610077 0.101591\n43 1 1 1 0.487253 0.610077 0.06983\n43 1 1 1 0.48715 0.610657 0.066932\n43 1 1 1 0.487031 0.61142 0.052443\n43 1 1 1 0.486894 0.611877 0.036932\n43 1 1 1 0.486414 0.611755 0.014318\n44 0 1 1 0.486414 0.611755 0.014318\n...\n44 1 1 0 0.58395 0.343018 0.037045\n44 1 1 1 0.58395 0.343018 0.046989\n44 1 1 1 0.58395 0.343018 0.065114\n44 1 1 1 0.58395 0.343018 0.067045\n44 1 1 1 0.58395 0.343018 0.045\n44 1 1 1 0.58395 0.343018 0.022386\n45 0 1 1 0.58395 0.343018 0.022386\n"
								}

							}
, 							{
								"box" : 								{
									"id" : "obj-27",
									"maxclass" : "newobj",
									"numinlets" : 2,
									"numoutlets" : 2,
									"outlettype" : [ "", "" ],
									"patching_rect" : [ 552.5, 519.0, 39.0, 22.0 ],
									"text" : "zl join"
								}

							}
, 							{
								"box" : 								{
									"id" : "obj-28",
									"maxclass" : "newobj",
									"numinlets" : 1,
									"numoutlets" : 1,
									"outlettype" : [ "float" ],
									"patching_rect" : [ 552.5, 495.0, 55.0, 22.0 ],
									"text" : "cpuclock"
								}

							}
, 							{
								"box" : 								{
									"id" : "obj-30",
									"maxclass" : "button",
									"numinlets" : 1,
									"numoutlets" : 1,
									"outlettype" : [ "bang" ],
									"parameter_enable" : 0,
									"patching_rect" : [ 552.5, 469.0, 24.0, 24.0 ]
								}

							}
, 							{
								"box" : 								{
									"bgcolor" : [ 0.682352941176471, 0.003921568627451, 0.015686274509804, 1.0 ],
									"id" : "obj-10",
									"maxclass" : "newobj",
									"numinlets" : 1,
									"numoutlets" : 0,
									"patching_rect" : [ 552.5, 586.0, 74.0, 22.0 ],
									"text" : "s input_data"
								}

							}
, 							{
								"box" : 								{
									"id" : "obj-8",
									"linecount" : 6,
									"maxclass" : "comment",
									"numinlets" : 1,
									"numoutlets" : 0,
									"patching_rect" : [ 703.0, 63.0, 293.0, 100.0 ],
									"text" : "INPUT:\nissues:\n- there is no constant time resampling, we expect the input to be stable.\n- in the case finger one is lifted but finger two is moving, the stroke is not interrupted.\n"
								}

							}
, 							{
								"box" : 								{
									"bgcolor" : [ 0.396078431372549, 0.396078431372549, 0.396078431372549, 1.0 ],
									"bgmode" : 2,
									"border" : 0,
									"clickthrough" : 0,
									"enablehscroll" : 0,
									"enablevscroll" : 0,
									"id" : "obj-5",
									"lockeddragscroll" : 0,
									"lockedsize" : 0,
									"maxclass" : "bpatcher",
									"name" : "sensel_ui.maxpat",
									"numinlets" : 0,
									"numoutlets" : 3,
									"offset" : [ 0.0, 0.0 ],
									"outlettype" : [ "", "int", "" ],
									"patching_rect" : [ 76.5, 60.0, 597.0, 361.0 ],
									"viewvisibility" : 1
								}

							}
 ],
						"lines" : [ 							{
								"patchline" : 								{
									"destination" : [ "obj-10", 0 ],
									"source" : [ "obj-27", 0 ]
								}

							}
, 							{
								"patchline" : 								{
									"destination" : [ "obj-27", 0 ],
									"source" : [ "obj-28", 0 ]
								}

							}
, 							{
								"patchline" : 								{
									"destination" : [ "obj-28", 0 ],
									"source" : [ "obj-30", 0 ]
								}

							}
, 							{
								"patchline" : 								{
									"destination" : [ "obj-27", 1 ],
									"order" : 0,
									"source" : [ "obj-5", 2 ]
								}

							}
, 							{
								"patchline" : 								{
									"destination" : [ "obj-30", 0 ],
									"order" : 1,
									"source" : [ "obj-5", 2 ]
								}

							}
 ],
						"styles" : [ 							{
								"name" : "AudioStatus_Menu",
								"default" : 								{
									"bgfillcolor" : 									{
										"angle" : 270.0,
										"autogradient" : 0,
										"color" : [ 0.294118, 0.313726, 0.337255, 1 ],
										"color1" : [ 0.454902, 0.462745, 0.482353, 0.0 ],
										"color2" : [ 0.290196, 0.309804, 0.301961, 1.0 ],
										"proportion" : 0.39,
										"type" : "color"
									}

								}
,
								"parentstyle" : "",
								"multi" : 0
							}
, 							{
								"name" : "Audiomix",
								"default" : 								{
									"bgfillcolor" : 									{
										"angle" : 270.0,
										"color" : [ 0.290196, 0.309804, 0.301961, 1.0 ],
										"color1" : [ 0.376471, 0.384314, 0.4, 1.0 ],
										"color2" : [ 0.290196, 0.309804, 0.301961, 1.0 ],
										"proportion" : 0.39,
										"type" : "gradient"
									}

								}
,
								"parentstyle" : "",
								"multi" : 0
							}
, 							{
								"name" : "ksliderWhite",
								"default" : 								{
									"color" : [ 1.0, 1.0, 1.0, 1.0 ]
								}
,
								"parentstyle" : "",
								"multi" : 0
							}
, 							{
								"name" : "newobjBlue-1",
								"default" : 								{
									"accentcolor" : [ 0.317647, 0.654902, 0.976471, 1.0 ]
								}
,
								"parentstyle" : "",
								"multi" : 0
							}
, 							{
								"name" : "newobjBrown-1",
								"default" : 								{
									"accentcolor" : [ 0.654902, 0.572549, 0.376471, 1.0 ]
								}
,
								"parentstyle" : "",
								"multi" : 0
							}
, 							{
								"name" : "newobjCyan-1",
								"default" : 								{
									"accentcolor" : [ 0.029546, 0.773327, 0.821113, 1.0 ]
								}
,
								"parentstyle" : "",
								"multi" : 0
							}
, 							{
								"name" : "newobjGreen-1",
								"default" : 								{
									"accentcolor" : [ 0.0, 0.533333, 0.168627, 1.0 ]
								}
,
								"parentstyle" : "",
								"multi" : 0
							}
, 							{
								"name" : "newobjYellow-1",
								"default" : 								{
									"accentcolor" : [ 0.82517, 0.78181, 0.059545, 1.0 ],
									"fontsize" : [ 12.059008 ]
								}
,
								"parentstyle" : "",
								"multi" : 0
							}
, 							{
								"name" : "numberGold-1",
								"default" : 								{
									"accentcolor" : [ 0.764706, 0.592157, 0.101961, 1.0 ]
								}
,
								"parentstyle" : "",
								"multi" : 0
							}
, 							{
								"name" : "rsliderGold",
								"default" : 								{
									"bgcolor" : [ 0.764706, 0.592157, 0.101961, 1.0 ],
									"color" : [ 0.646639, 0.821777, 0.854593, 1.0 ]
								}
,
								"parentstyle" : "",
								"multi" : 0
							}
, 							{
								"name" : "tap",
								"default" : 								{
									"fontname" : [ "Lato Light" ]
								}
,
								"parentstyle" : "",
								"multi" : 0
							}
 ]
					}
,
					"patching_rect" : [ 96.0, 85.0, 45.0, 22.0 ],
					"saved_object_attributes" : 					{
						"description" : "",
						"digest" : "",
						"globalpatchername" : "",
						"tags" : ""
					}
,
					"text" : "p input"
				}

			}
 ],
		"lines" : [  ],
		"dependency_cache" : [ 			{
				"name" : "OpenSoundControl.mxo",
				"type" : "iLaX"
			}
, 			{
				"name" : "filter.js",
				"bootpath" : "~/Documents/research/movement_exploration/max_implementation/new/max",
				"patcherrelativepath" : ".",
				"type" : "TEXT",
				"implicit" : 1
			}
, 			{
				"name" : "fit_jweb_to_bounds.js",
				"bootpath" : "C74:/packages/Node for Max/patchers/debug-monitor",
				"type" : "TEXT",
				"implicit" : 1
			}
, 			{
				"name" : "n4m.monitor.maxpat",
				"bootpath" : "C74:/packages/Node for Max/patchers/debug-monitor",
				"type" : "JSON",
				"implicit" : 1
			}
, 			{
				"name" : "resize_n4m_monitor_patcher.js",
				"bootpath" : "C74:/packages/Node for Max/patchers/debug-monitor",
				"type" : "TEXT",
				"implicit" : 1
			}
, 			{
				"name" : "sensel.mxo",
				"type" : "iLaX"
			}
, 			{
				"name" : "sensel_ui.maxpat",
				"bootpath" : "~/Documents/research/movement_exploration/max_implementation/new/max",
				"patcherrelativepath" : ".",
				"type" : "JSON",
				"implicit" : 1
			}
, 			{
				"name" : "simpleFM~.maxpat",
				"bootpath" : "C74:/docs/tutorial-patchers/msp-tut",
				"type" : "JSON",
				"implicit" : 1
			}
, 			{
				"name" : "unistroke.js",
				"bootpath" : "~/Documents/research/movement_exploration/max_implementation/new/max",
				"patcherrelativepath" : ".",
				"type" : "TEXT",
				"implicit" : 1
			}
 ],
		"autosave" : 0
	}

}
